<svg width="16" height="16" viewBox="0 0 16 16" fill="none" xmlns="http://www.w3.org/2000/svg">
<g id="icon">
<path id="Union" fill-rule="evenodd" clip-rule="evenodd" d="M5 4.5C5 4.0418 5.15097 3.672 5.39402 3.41982C5.63431 3.17051 5.99915 3 6.5 3C7.00085 3 7.36569 3.17051 7.60598 3.41982C7.84903 3.672 8 4.0418 8 4.5C8 4.9582 7.84903 5.328 7.60598 5.58018C7.36569 5.82949 7.00085 6 6.5 6C5.99915 6 5.63431 5.82949 5.39402 5.58018C5.15097 5.328 5 4.9582 5 4.5ZM8.15778 6.43174C8.21641 6.38218 8.27252 6.32962 8.326 6.27414C8.77229 5.81109 9 5.18088 9 4.5C9 3.81912 8.77229 3.18891 8.326 2.72586C7.87695 2.25995 7.24179 2 6.5 2C5.75821 2 5.12305 2.25995 4.674 2.72586C4.22771 3.18891 4 3.81912 4 4.5C4 5.18088 4.22771 5.81109 4.674 6.27414C4.72748 6.32962 4.78359 6.38218 4.84222 6.43174C4.28957 6.72344 3.78572 7.14696 3.36552 7.65241C2.54531 8.639 2 9.98504 2 11.4375C2 11.8721 2.11398 12.2719 2.34786 12.6192C2.57933 12.9628 2.91056 13.2291 3.30735 13.4303C4.08871 13.8266 5.18163 14 6.5 14C7.81837 14 8.91129 13.8266 9.69265 13.4303C10.0894 13.2291 10.4207 12.9628 10.6521 12.6192C10.886 12.2719 11 11.8721 11 11.4375C11 9.98504 10.4547 8.639 9.63448 7.65241C9.21428 7.14696 8.71043 6.72344 8.15778 6.43174ZM6.5 7C5.68993 7 4.81953 7.46768 4.13448 8.29169C3.45469 9.10938 3 10.2321 3 11.4375C3 11.6904 3.06385 11.8921 3.17727 12.0605C3.29309 12.2325 3.47861 12.3959 3.75965 12.5384C4.33396 12.8297 5.24104 13 6.5 13C7.75896 13 8.66604 12.8297 9.24035 12.5384C9.52139 12.3959 9.70691 12.2325 9.82273 12.0605C9.93615 11.8921 10 11.6904 10 11.4375C10 10.2321 9.54531 9.10938 8.86552 8.29169C8.18047 7.46768 7.31007 7 6.5 7ZM12.5 3C12.7761 3 13 3.22386 13 3.5V5H14.5C14.7761 5 15 5.22386 15 5.5C15 5.77614 14.7761 6 14.5 6H13V7.5C13 7.77614 12.7761 8 12.5 8C12.2239 8 12 7.77614 12 7.5V6H10.5C10.2239 6 10 5.77614 10 5.5C10 5.22386 10.2239 5 10.5 5H12V3.5C12 3.22386 12.2239 3 12.5 3Z" fill="#969FAE"/>
</g>
</svg>
