<svg width="16" height="16" viewBox="0 0 16 16" fill="none" xmlns="http://www.w3.org/2000/svg">
<g id="icon">
<path id="Union" fill-rule="evenodd" clip-rule="evenodd" d="M3 7.5C3 4.91244 4.91244 3 7.49999 3C10.0875 3 12 4.91244 12 7.5C12 10.0876 10.0876 12 7.5 12C4.91244 12 3 10.0876 3 7.5ZM7.49999 2C4.36015 2 2 4.36016 2 7.5C2 10.6398 4.36016 13 7.5 13C8.88143 13 10.1119 12.5431 11.0569 11.764L13.1464 13.8536C13.3417 14.0488 13.6583 14.0488 13.8535 13.8536C14.0488 13.6583 14.0488 13.3417 13.8535 13.1464L11.764 11.0569C12.5431 10.1119 13 8.88143 13 7.5C13 4.36016 10.6398 2 7.49999 2Z" fill="#969FAE"/>
</g>
</svg>
