<svg width="16" height="16" viewBox="0 0 16 16" fill="none" xmlns="http://www.w3.org/2000/svg">
<g id="icon-x-16">
<path id="Union" fill-rule="evenodd" clip-rule="evenodd" d="M11.8536 4.85355C12.0488 4.65829 12.0488 4.34171 11.8536 4.14645C11.6583 3.95118 11.3417 3.95118 11.1465 4.14645L8.00002 7.29289L4.85358 4.14645C4.65831 3.95118 4.34173 3.95118 4.14647 4.14645C3.95121 4.34171 3.95121 4.65829 4.14647 4.85355L7.29292 8L4.14647 11.1464C3.95121 11.3417 3.95121 11.6583 4.14647 11.8536C4.34173 12.0488 4.65831 12.0488 4.85358 11.8536L8.00002 8.70711L11.1465 11.8536C11.3417 12.0488 11.6583 12.0488 11.8536 11.8536C12.0488 11.6583 12.0488 11.3417 11.8536 11.1464L8.70713 8L11.8536 4.85355Z" fill="white"/>
</g>
</svg>
